<svg width="33" height="33" viewBox="0 0 33 33" fill="none" xmlns="http://www.w3.org/2000/svg">
<path d="M30 16.504C30.0014 14.2574 29.4418 12.046 28.3718 10.0703C27.3019 8.09467 25.7555 6.4173 23.8728 5.19035C21.9902 3.96339 19.831 3.22569 17.5909 3.04414C15.3509 2.86259 13.101 3.24294 11.0452 4.1507C8.98947 5.05846 7.19294 6.46489 5.81859 8.24244C4.44423 10.02 3.53554 12.1124 3.17493 14.3299C2.81432 16.5474 3.0132 18.8198 3.75354 20.941C4.49387 23.0622 5.75224 24.9651 7.4145 26.477C7.44865 26.5196 7.48972 26.5561 7.536 26.585C10.0061 28.7846 13.1987 30 16.5067 30C19.8148 30 23.0074 28.7846 25.4775 26.585L25.5855 26.477C26.9776 25.2153 28.0897 23.676 28.85 21.9582C29.6104 20.2404 30.0021 18.3824 30 16.504ZM4.08 16.504C4.07984 14.4634 4.58283 12.4541 5.54448 10.6541C6.50613 8.85411 7.89679 7.31879 9.59339 6.18402C11.29 5.04925 13.2403 4.35002 15.2716 4.14819C17.3029 3.94636 19.3527 4.24815 21.2396 5.02687C23.1264 5.80559 24.7922 7.03723 26.0895 8.6128C27.3867 10.1884 28.2755 12.0593 28.6772 14.06C29.0789 16.0608 28.981 18.1296 28.3923 20.0836C27.8036 22.0375 26.7422 23.8163 25.302 25.2625C23.9614 23.0174 21.8117 21.3707 19.2945 20.6606C20.4635 20.0375 21.3906 19.0417 21.9285 17.8314C22.4663 16.6211 22.584 15.2659 22.2627 13.981C21.9415 12.6962 21.1999 11.5556 20.1557 10.7406C19.1115 9.92554 17.8248 9.48283 16.5 9.48283C15.1752 9.48283 13.8884 9.92554 12.8443 10.7406C11.8001 11.5556 11.0585 12.6962 10.7372 13.981C10.416 15.2659 10.5337 16.6211 11.0715 17.8314C11.6093 19.0417 12.5365 20.0375 13.7055 20.6606C11.1883 21.3707 9.03858 23.0174 7.698 25.2625C5.38236 22.9351 4.08173 19.7865 4.08 16.504ZM16.5 20.2827C15.5388 20.2827 14.5991 19.9977 13.7999 19.4639C13.0007 18.9301 12.3778 18.1713 12.0099 17.2836C11.6421 16.3958 11.5459 15.419 11.7334 14.4766C11.9209 13.5341 12.3838 12.6685 13.0635 11.989C13.7431 11.3096 14.6091 10.8469 15.5519 10.6594C16.4946 10.4719 17.4718 10.5682 18.3598 10.9359C19.2479 11.3036 20.0069 11.9263 20.5409 12.7252C21.075 13.5242 21.36 14.4635 21.36 15.4244C21.36 16.7129 20.848 17.9486 19.9365 18.8597C19.0251 19.7708 17.7889 20.2827 16.5 20.2827ZM8.5215 26.0047C9.32331 24.5963 10.4839 23.4252 11.8853 22.6106C13.2867 21.7959 14.8789 21.3668 16.5 21.3668C18.1211 21.3668 19.7133 21.7959 21.1147 22.6106C22.5161 23.4252 23.6767 24.5963 24.4785 26.0047C22.2459 27.8859 19.4199 28.9177 16.5 28.9177C13.5801 28.9177 10.7541 27.8859 8.5215 26.0047Z" fill="black"/>
</svg>
