<svg width="35" height="34" viewBox="0 0 35 34" fill="none" xmlns="http://www.w3.org/2000/svg">
<path d="M34.1402 31.6094C31.7495 27.2901 27.9228 24.0483 23.3937 22.5055C25.5646 21.1516 27.2516 19.0876 28.1956 16.6307C29.1396 14.1737 29.2883 11.4597 28.6189 8.90547C27.9495 6.35128 26.499 4.09823 24.4903 2.49245C22.4816 0.886663 20.0257 0.0169678 17.5 0.0169678C14.9743 0.0169678 12.5184 0.886663 10.5097 2.49245C8.50098 4.09823 7.0505 6.35128 6.38111 8.90547C5.71171 11.4597 5.86041 14.1737 6.80438 16.6307C7.74834 19.0876 9.43535 21.1516 11.6062 22.5055C7.07718 24.0483 3.25046 27.2901 0.859757 31.6094C0.759482 31.7619 0.690379 31.9346 0.656789 32.1165C0.6232 32.2985 0.62585 32.4857 0.664573 32.6665C0.703297 32.8473 0.777256 33.0177 0.881805 33.1671C0.986353 33.3165 1.11923 33.4416 1.27209 33.5345C1.42494 33.6275 1.59448 33.6862 1.77003 33.7072C1.94559 33.7281 2.12337 33.7107 2.29221 33.6561C2.46105 33.6015 2.6173 33.5109 2.75113 33.3899C2.88497 33.2689 2.9935 33.1202 3.06991 32.9531C4.53435 30.2992 6.63849 28.0958 9.17124 26.564C11.704 25.0322 14.5763 24.2258 17.5 24.2258C20.4237 24.2258 23.296 25.0322 25.8287 26.564C28.3615 28.0958 30.4656 30.2992 31.9301 32.9531C32.0065 33.1202 32.115 33.2689 32.2488 33.3899C32.3827 33.5109 32.5389 33.6015 32.7078 33.6561C32.8766 33.7107 33.0544 33.7281 33.2299 33.7072C33.4055 33.6862 33.575 33.6275 33.7279 33.5345C33.8807 33.4416 34.0136 33.3165 34.1182 33.1671C34.2227 33.0177 34.2967 32.8473 34.3354 32.6665C34.3741 32.4857 34.3768 32.2985 34.3432 32.1165C34.3096 31.9346 34.2405 31.7619 34.1402 31.6094ZM8.53124 12.125C8.53124 10.2646 9.05725 8.44602 10.0427 6.89917C11.0282 5.35232 12.429 4.1467 14.0678 3.43476C15.7066 2.72283 17.5099 2.53655 19.2497 2.89949C20.9895 3.26243 22.5875 4.15829 23.8419 5.47378C25.0962 6.78927 25.9503 8.4653 26.2964 10.2899C26.6425 12.1146 26.4649 14.0059 25.786 15.7246C25.1072 17.4434 23.9577 18.9124 22.4828 19.946C21.0079 20.9796 19.2738 21.5313 17.5 21.5313C15.1213 21.5313 12.8401 20.5402 11.1581 18.7762C9.47616 17.0122 8.53124 14.6197 8.53124 12.125Z" fill="#1E1E1E"/>
</svg>
