<svg width="37" height="33" viewBox="0 0 37 33" fill="none" xmlns="http://www.w3.org/2000/svg">
<path d="M35.9519 30.9531C33.4446 26.8348 29.4312 23.7437 24.6812 22.2727C26.958 20.9817 28.7273 19.0138 29.7173 16.6711C30.7074 14.3284 30.8633 11.7406 30.1613 9.30522C29.4592 6.86983 27.938 4.72158 25.8313 3.19048C23.7246 1.65938 21.1489 0.830139 18.5 0.830139C15.8511 0.830139 13.2754 1.65938 11.1687 3.19048C9.06201 4.72158 7.54078 6.86983 6.83873 9.30522C6.13668 11.7406 6.29264 14.3284 7.28265 16.6711C8.27266 19.0138 10.042 20.9817 12.3187 22.2727C7.56875 23.7437 3.55537 26.8348 1.04804 30.9531C0.942877 31.0986 0.870403 31.2632 0.835175 31.4367C0.799947 31.6102 0.802727 31.7887 0.843339 31.9611C0.883951 32.1335 0.961519 32.296 1.07117 32.4384C1.18082 32.5809 1.32017 32.7001 1.48049 32.7887C1.6408 32.8774 1.8186 32.9334 2.00272 32.9534C2.18684 32.9733 2.3733 32.9567 2.55037 32.9047C2.72745 32.8526 2.89132 32.7662 3.03168 32.6508C3.17205 32.5355 3.28588 32.3937 3.36601 32.2344C4.90189 29.7039 7.10866 27.603 9.76496 26.1424C12.4213 24.6818 15.4337 23.913 18.5 23.913C21.5663 23.913 24.5787 24.6818 27.235 26.1424C29.8913 27.603 32.0981 29.7039 33.634 32.2344C33.7141 32.3937 33.8279 32.5355 33.9683 32.6508C34.1087 32.7662 34.2725 32.8526 34.4496 32.9047C34.6267 32.9567 34.8131 32.9733 34.9973 32.9534C35.1814 32.9334 35.3592 32.8774 35.5195 32.7887C35.6798 32.7001 35.8192 32.5809 35.9288 32.4384C36.0385 32.296 36.116 32.1335 36.1567 31.9611C36.1973 31.7887 36.2 31.6102 36.1648 31.4367C36.1296 31.2632 36.0571 31.0986 35.9519 30.9531ZM9.09375 12.375C9.09375 10.6012 9.64541 8.86714 10.679 7.39224C11.7126 5.91734 13.1816 4.76779 14.9004 4.08897C16.6191 3.41014 18.5104 3.23253 20.3351 3.57859C22.1597 3.92465 23.8357 4.77885 25.1512 6.03315C26.4667 7.28745 27.3626 8.88553 27.7255 10.6253C28.0884 12.3651 27.9022 14.1684 27.1902 15.8072C26.4783 17.446 25.2727 18.8468 23.7258 19.8323C22.179 20.8178 20.3604 21.3438 18.5 21.3438C16.0053 21.3438 13.6128 20.3988 11.8488 18.7169C10.0848 17.0349 9.09375 14.7537 9.09375 12.375Z" fill="white"/>
</svg>
