<svg width="125" height="126" viewBox="0 0 125 126" fill="none" xmlns="http://www.w3.org/2000/svg">
<path d="M96.3382 66.9338C96.4353 65.885 96.6977 64.9318 97.1252 64.0742C97.566 63.2179 98.1352 62.4939 98.8327 61.9024C99.5302 61.3108 100.328 60.8691 101.225 60.5773C102.121 60.2987 103.08 60.2067 104.103 60.3014C105.125 60.396 106.051 60.6625 106.881 61.1009C107.709 61.5525 108.412 62.1331 108.989 62.8427C109.565 63.5655 109.984 64.3877 110.247 65.3092C110.523 66.2319 110.613 67.2177 110.516 68.2665C110.422 69.2755 110.162 70.2088 109.734 71.0664C109.32 71.9252 108.746 72.6286 108.012 73.1767L107.163 72.154C107.8 71.6372 108.277 71.0453 108.593 70.3782C108.922 69.7124 109.124 68.9813 109.198 68.1847C109.275 67.3482 109.201 66.558 108.975 65.8141C108.763 65.0713 108.416 64.4098 107.934 63.8296C107.465 63.2506 106.893 62.7758 106.218 62.4053C105.554 62.0493 104.805 61.8326 103.968 61.7552C103.132 61.6777 102.348 61.7525 101.617 61.9794C100.899 62.2209 100.249 62.5825 99.6691 63.0644C99.1022 63.5476 98.6395 64.1341 98.281 64.824C97.9358 65.5151 97.7245 66.2789 97.6471 67.1153C97.5733 67.9119 97.6373 68.6676 97.8389 69.3826C98.0405 70.0976 98.407 70.7675 98.9383 71.3925L97.9156 72.2419C97.295 71.5685 96.8533 70.771 96.5905 69.8495C96.3277 68.928 96.2436 67.9561 96.3382 66.9338Z" fill="#D9D9D9"/>
<path d="M95.6207 73.1744L107.986 79.74L102.461 90.1443L90.0963 83.5787L90.7809 82.2892L102.369 88.4421L101.837 88.5901L106.349 80.0936L106.524 80.6168L94.936 74.4639L95.6207 73.1744Z" fill="#D9D9D9"/>
<path d="M89.294 84.806C89.4412 84.6912 89.5914 84.591 89.7444 84.5054C89.8893 84.4093 90.0623 84.3167 90.2633 84.2276L90.9805 85.3422C90.7689 85.4396 90.579 85.5538 90.4108 85.685C89.9377 86.054 89.7027 86.5332 89.7058 87.1226C89.7066 87.7307 89.9368 88.4811 90.3964 89.374C90.8642 90.2773 91.5568 91.3604 92.4741 92.6233L96.0064 97.4775L88.5153 103.32L79.9054 92.2805L81.0567 91.3826L89.1254 101.728L88.5797 101.646L94.478 97.0463L94.4524 97.5989L91.4579 93.4667C90.6389 92.3299 89.9716 91.3117 89.4559 90.4119C88.9483 89.5227 88.5958 88.7238 88.3984 88.0154C88.2092 87.3175 88.1856 86.7019 88.3276 86.1684C88.4777 85.6455 88.7999 85.1914 89.294 84.806Z" fill="#D9D9D9"/>
<path d="M79.0149 93.3377L76.3184 108.493L74.9048 108.858L65.2077 96.903L66.7182 96.5129L75.6967 107.766L75.1158 107.916L77.5238 93.7227L79.0149 93.3377ZM77.51 97.589L77.384 98.8608L69.5025 100.896L68.7764 99.8441L77.51 97.589Z" fill="#D9D9D9"/>
<path d="M60.8734 96.2815L59.4668 109.326L59.112 108.885L64.4013 109.456L64.2641 110.728L53.0292 109.517L53.1664 108.244L58.4359 108.812L58.0152 109.169L59.4219 96.1249L60.8734 96.2815Z" fill="#D9D9D9"/>
<path d="M53.191 95.3725L46.761 107.809L45.4641 107.138L50.7918 96.8338L37.505 103.023L36.3147 102.407L42.7448 89.9712L44.0417 90.6418L38.7231 100.928L52.0007 94.7571L53.191 95.3725Z" fill="#D9D9D9"/>
<path d="M38.942 85.9892L29.1238 94.692L29.1578 94.1273L32.6867 98.1084L31.7288 98.9575L24.2333 90.5013L25.1912 89.6522L28.7068 93.6184L28.1554 93.5994L37.9736 84.8966L38.942 85.9892Z" fill="#D9D9D9"/>
<path d="M33.8744 80.1914L20.7364 85.0281L20.232 83.658L31.1178 79.6505L17.1366 75.2497L16.6737 73.9922L29.8116 69.1555L30.316 70.5256L19.449 74.5262L33.4115 78.9339L33.8744 80.1914Z" fill="#D9D9D9"/>
<path d="M30.5949 55.5018C30.3921 56.5354 30.0346 57.4571 29.5224 58.267C28.9971 59.0743 28.3576 59.7369 27.6038 60.2548C26.8499 60.7727 26.0119 61.1313 25.0895 61.3308C24.1698 61.5172 23.2062 61.5116 22.1987 61.3139C21.1912 61.1162 20.297 60.7573 19.5158 60.2372C18.7372 59.704 18.0968 59.0552 17.5946 58.2909C17.095 57.5134 16.761 56.653 16.5929 55.7097C16.4116 54.7637 16.4224 53.774 16.6252 52.7403C16.8203 51.746 17.1739 50.8438 17.6861 50.034C18.1852 49.2215 18.8275 48.5799 19.6128 48.1089L20.3542 49.2123C19.6682 49.662 19.1341 50.2026 18.752 50.8342C18.3568 51.4632 18.0822 52.1702 17.9282 52.9552C17.7664 53.7795 17.7602 54.5732 17.9094 55.3362C18.0455 56.0966 18.3239 56.7899 18.7446 57.4159C19.1522 58.0394 19.6732 58.5696 20.3076 59.0066C20.9314 59.4279 21.6555 59.7195 22.4798 59.8812C23.3041 60.0429 24.0912 60.0479 24.8411 59.8961C25.5805 59.7287 26.2633 59.4347 26.8893 59.014C27.5023 58.5908 28.022 58.0541 28.4484 57.4041C28.8618 56.7515 29.1494 56.013 29.3111 55.1887C29.4652 54.4037 29.4781 53.6453 29.3499 52.9136C29.2217 52.1819 28.925 51.4783 28.4597 50.8027L29.5631 50.0613C30.1123 50.7941 30.471 51.6322 30.6391 52.5755C30.8073 53.5189 30.7926 54.4943 30.5949 55.5018Z" fill="#D9D9D9"/>
<path d="M31.908 49.3271L20.2741 41.5392L26.8271 31.7501L38.461 39.538L37.6488 40.7513L26.7462 33.4529L27.29 33.3596L21.9385 41.3538L21.8175 40.8155L32.7202 48.1139L31.908 49.3271Z" fill="#D9D9D9"/>
<path d="M39.2859 38.412C39.1279 38.5114 38.9685 38.596 38.8075 38.6657C38.6537 38.7467 38.4723 38.8215 38.2634 38.89L37.662 37.7088C37.8822 37.6332 38.0826 37.5386 38.2632 37.425C38.771 37.1055 39.0531 36.6524 39.1092 36.0657C39.1696 35.4606 39.0161 34.6908 38.6486 33.7563C38.2741 32.8105 37.694 31.6632 36.9083 30.3144L33.8823 25.1295L41.9231 20.0703L49.3788 31.9199L48.1431 32.6974L41.156 21.5926L41.6907 21.7288L35.3596 25.7123L35.4406 25.1651L38.0043 29.5776C38.7047 30.7909 39.2662 31.8711 39.6888 32.8182C40.1043 33.754 40.3747 34.5842 40.4998 35.3089C40.6178 36.0223 40.5794 36.6372 40.3845 37.1537C40.1825 37.6588 39.8163 38.0783 39.2859 38.412Z" fill="#D9D9D9"/>
<path d="M50.3961 30.8955L54.597 16.0863L56.0401 15.8647L64.4909 28.7311L62.949 28.9679L55.1427 16.8726L55.7357 16.7816L51.9183 30.6618L50.3961 30.8955ZM52.3193 26.8164L52.572 25.5635L60.6177 24.328L61.2347 25.4473L52.3193 26.8164Z" fill="#D9D9D9"/>
<path d="M68.7205 29.7445L71.4385 16.9091L71.747 17.3833L66.5424 16.2812L66.8076 15.0289L77.8624 17.3699L77.5973 18.6221L72.4122 17.5242L72.8669 17.2116L70.1489 30.0469L68.7205 29.7445Z" fill="#D9D9D9"/>
<path d="M76.3532 31.4106L84.0139 19.6925L85.2359 20.4914L78.8885 30.2007L92.7355 25.3942L93.8571 26.1275L86.1964 37.8456L84.9744 37.0467L91.3108 27.3541L77.4748 32.1439L76.3532 31.4106Z" fill="#D9D9D9"/>
<path d="M89.6463 42.221L100.313 34.5822L100.221 35.1403L97.1234 30.815L98.1641 30.0697L104.743 39.2569L103.703 40.0022L100.617 35.6931L101.163 35.7692L90.4963 43.408L89.6463 42.221Z" fill="#D9D9D9"/>
<path d="M94.0773 48.468L107.633 44.9677L107.998 46.3814L96.7661 49.2816L110.238 55.0568L110.573 56.3542L97.0176 59.8545L96.6525 58.4409L107.865 55.5457L94.4124 49.7655L94.0773 48.468Z" fill="#D9D9D9"/>
</svg>
