<svg width="68" height="69" viewBox="0 0 68 69" fill="none" xmlns="http://www.w3.org/2000/svg">
<path d="M52.3814 36.831C52.4339 36.2644 52.5756 35.7495 52.8065 35.2863C53.0447 34.8237 53.3521 34.4326 53.7289 34.113C54.1057 33.7935 54.5365 33.5549 55.0213 33.3972C55.5054 33.2467 56.0235 33.1971 56.5758 33.2482C57.128 33.2993 57.6283 33.4433 58.0765 33.6801C58.5241 33.9241 58.9038 34.2377 59.2155 34.621C59.5265 35.0115 59.7531 35.4556 59.895 35.9534C60.0442 36.4518 60.0925 36.9844 60.0401 37.5509C59.9896 38.096 59.8489 38.6002 59.618 39.0634C59.3942 39.5274 59.0841 39.9073 58.6878 40.2034L58.229 39.6509C58.5731 39.3718 58.8306 39.052 59.0014 38.6917C59.1793 38.332 59.2882 37.937 59.3281 37.5067C59.3699 37.0549 59.3299 36.628 59.2079 36.2261C59.0932 35.8249 58.9056 35.4676 58.6453 35.1541C58.3922 34.8413 58.0832 34.5849 57.7183 34.3847C57.36 34.1924 56.9549 34.0754 56.5031 34.0335C56.0512 33.9917 55.628 34.0321 55.2332 34.1547C54.845 34.2851 54.4942 34.4805 54.1808 34.7408C53.8745 35.0018 53.6245 35.3186 53.4309 35.6913C53.2444 36.0646 53.1303 36.4772 53.0885 36.929C53.0486 37.3594 53.0831 37.7676 53.1921 38.1538C53.301 38.5401 53.4989 38.902 53.7859 39.2396L53.2335 39.6984C52.8983 39.3346 52.6597 38.9039 52.5177 38.4061C52.3757 37.9083 52.3303 37.3833 52.3814 36.831Z" fill="#D9D9D9"/>
<path d="M51.964 40.3016L58.6436 43.8482L55.6593 49.4686L48.9797 45.9219L49.3496 45.2254L55.6093 48.5491L55.3222 48.6291L57.7593 44.0393L57.8539 44.3219L51.5941 40.9982L51.964 40.3016Z" fill="#D9D9D9"/>
<path d="M48.4757 46.6689C48.5553 46.6069 48.6364 46.5527 48.7191 46.5065C48.7973 46.4546 48.8907 46.4046 48.9993 46.3564L49.3868 46.9586C49.2725 47.0112 49.1699 47.0729 49.079 47.1438C48.8235 47.3431 48.6965 47.6019 48.6982 47.9203C48.6986 48.2488 48.823 48.6542 49.0713 49.1365C49.324 49.6245 49.6981 50.2096 50.1936 50.8918L52.1018 53.514L48.0551 56.6701L43.404 50.7066L44.0259 50.2216L48.3846 55.8102L48.0899 55.7661L51.2761 53.2811L51.2623 53.5796L49.6447 51.3474C49.2023 50.7333 48.8418 50.1833 48.5632 49.6972C48.289 49.2168 48.0986 48.7853 47.992 48.4026C47.8897 48.0256 47.877 47.6931 47.9537 47.4049C48.0348 47.1224 48.2088 46.8771 48.4757 46.6689Z" fill="#D9D9D9"/>
<path d="M42.8268 51.3254L41.3701 59.5124L40.6065 59.7096L35.3682 53.2514L36.1841 53.0407L41.0343 59.1193L40.7205 59.2003L42.0213 51.5334L42.8268 51.3254ZM42.0138 53.6219L41.9458 54.309L37.6882 55.4084L37.296 54.8402L42.0138 53.6219Z" fill="#D9D9D9"/>
<path d="M32.9326 52.9223L32.1728 59.9688L31.9811 59.7308L34.8384 60.039L34.7642 60.7264L28.6952 60.072L28.7693 59.3845L31.6159 59.6915L31.3886 59.8843L32.1485 52.8377L32.9326 52.9223Z" fill="#D9D9D9"/>
<path d="M28.6895 52.4034L25.216 59.1213L24.5154 58.7591L27.3934 53.1928L20.2159 56.5361L19.5729 56.2036L23.0464 49.4857L23.747 49.8479L20.8739 55.4046L28.0465 52.071L28.6895 52.4034Z" fill="#D9D9D9"/>
<path d="M20.916 47.2753L15.6122 51.9765L15.6306 51.6715L17.5369 53.8221L17.0194 54.2807L12.9704 49.7127L13.4878 49.2541L15.3869 51.3966L15.0891 51.3863L20.3929 46.6851L20.916 47.2753Z" fill="#D9D9D9"/>
<path d="M18.1284 44.0596L11.0313 46.6723L10.7588 45.9322L16.6393 43.7673L9.08666 41.39L8.83658 40.7107L15.9337 38.098L16.2062 38.8381L10.3358 40.9992L17.8783 43.3803L18.1284 44.0596Z" fill="#D9D9D9"/>
<path d="M16.3454 30.5799C16.2359 31.1383 16.0427 31.6362 15.7661 32.0737C15.4823 32.5098 15.1368 32.8677 14.7296 33.1475C14.3224 33.4273 13.8697 33.621 13.3714 33.7288C12.8746 33.8295 12.354 33.8264 11.8098 33.7196C11.2656 33.6129 10.7825 33.419 10.3605 33.138C9.93995 32.85 9.594 32.4995 9.3227 32.0866C9.05278 31.6666 8.8724 31.2019 8.78155 30.6923C8.68363 30.1813 8.68945 29.6466 8.79901 29.0882C8.90441 28.5511 9.09545 28.0637 9.37213 27.6262C9.64174 27.1874 9.98868 26.8407 10.4129 26.5863L10.8134 27.1824C10.4428 27.4253 10.1543 27.7173 9.94791 28.0585C9.73444 28.3983 9.5861 28.7802 9.50289 29.2043C9.41552 29.6496 9.41214 30.0783 9.49275 30.4905C9.56629 30.9013 9.71668 31.2758 9.94392 31.614C10.1641 31.9508 10.4455 32.2372 10.7882 32.4732C11.1253 32.7009 11.5164 32.8583 11.9617 32.9457C12.407 33.0331 12.8321 33.0358 13.2373 32.9538C13.6367 32.8633 14.0055 32.7045 14.3437 32.4772C14.6748 32.2486 14.9555 31.9587 15.1859 31.6076C15.4092 31.255 15.5646 30.8561 15.6519 30.4108C15.7352 29.9868 15.7421 29.5771 15.6729 29.1818C15.6036 28.7866 15.4433 28.4065 15.192 28.0415L15.788 27.641C16.0847 28.0369 16.2785 28.4896 16.3693 28.9992C16.4602 29.5088 16.4522 30.0357 16.3454 30.5799Z" fill="#D9D9D9"/>
<path d="M17.0948 27.1489L10.8102 22.9419L14.3501 17.6538L20.6347 21.8608L20.196 22.5162L14.3064 18.5737L14.6002 18.5233L11.7093 22.8417L11.644 22.5509L17.5335 26.4935L17.0948 27.1489Z" fill="#D9D9D9"/>
<path d="M21.1587 21.1759C21.0734 21.2296 20.9872 21.2752 20.9003 21.3129C20.8172 21.3567 20.7192 21.3971 20.6063 21.434L20.2815 20.796C20.4004 20.7552 20.5087 20.7041 20.6063 20.6427C20.8806 20.4701 21.0329 20.2253 21.0633 19.9084C21.0959 19.5815 21.0129 19.1657 20.8144 18.6608C20.6121 18.1499 20.2988 17.5301 19.8744 16.8015L18.2397 14.0007L22.5833 11.2677L26.6109 17.6688L25.9433 18.0888L22.169 12.0901L22.4578 12.1636L19.0377 14.3155L19.0815 14.0199L20.4664 16.4035C20.8447 17.059 21.1481 17.6425 21.3764 18.1541C21.6008 18.6596 21.7469 19.1081 21.8145 19.4996C21.8782 19.8849 21.8575 20.2171 21.7522 20.4961C21.6431 20.769 21.4452 20.9956 21.1587 21.1759Z" fill="#D9D9D9"/>
<path d="M27.261 17.078L29.5303 9.07813L30.3099 8.95842L34.875 15.9088L34.0421 16.0367L29.8251 9.50288L30.1455 9.45369L28.0833 16.9518L27.261 17.078ZM28.2999 14.8745L28.4364 14.1977L32.7827 13.5303L33.116 14.1349L28.2999 14.8745Z" fill="#D9D9D9"/>
<path d="M37.2546 16.4589L38.7229 9.52522L38.8895 9.78137L36.078 9.18601L36.2212 8.50955L42.193 9.77414L42.0498 10.4506L39.2489 9.85747L39.4944 9.6886L38.0262 16.6223L37.2546 16.4589Z" fill="#D9D9D9"/>
<path d="M41.4672 17.396L45.6055 11.0659L46.2657 11.4975L42.8368 16.7424L50.3169 14.146L50.9228 14.5421L46.7845 20.8722L46.1244 20.4406L49.5473 15.2047L42.0731 17.7921L41.4672 17.396Z" fill="#D9D9D9"/>
<path d="M48.7183 23.3031L54.4805 19.1766L54.4307 19.4781L52.7574 17.1416L53.3196 16.739L56.8736 21.7019L56.3115 22.1045L54.6445 19.7768L54.9397 19.8179L49.1775 23.9443L48.7183 23.3031Z" fill="#D9D9D9"/>
<path d="M51.1534 26.7656L58.476 24.8747L58.6732 25.6384L52.6059 27.2051L59.8834 30.3248L60.0643 31.0257L52.7417 32.9166L52.5446 32.1529L58.6014 30.5889L51.3344 27.4665L51.1534 26.7656Z" fill="#D9D9D9"/>
</svg>
