<svg width="32" height="32" viewBox="0 0 32 32" fill="none" xmlns="http://www.w3.org/2000/svg">
<path d="M30.4572 15.7975C30.4147 15.7025 29.3922 13.4362 27.1034 11.1475C24.9834 9.0275 21.3372 6.5 15.9997 6.5C10.6622 6.5 7.01595 9.0275 4.89595 11.1475C2.6072 13.4362 1.5847 15.7025 1.5422 15.7975C1.51436 15.8616 1.5 15.9307 1.5 16.0006C1.5 16.0705 1.51436 16.1396 1.5422 16.2038C1.5847 16.3 2.6072 18.565 4.89595 20.8538C7.02095 22.9788 10.6634 25.5 15.9997 25.5C21.3359 25.5 24.9834 22.9738 27.1034 20.8538C29.3922 18.565 30.4147 16.3 30.4572 16.2038C30.485 16.1396 30.4994 16.0705 30.4994 16.0006C30.4994 15.9307 30.485 15.8616 30.4572 15.7975ZM26.3697 20.1725C23.4859 23.0475 19.9947 24.5 15.9947 24.5C11.9947 24.5 8.50845 23.0438 5.6197 20.1725C4.39056 18.9467 3.35686 17.5395 2.5547 16C3.35835 14.4602 4.39376 13.0529 5.6247 11.8275C8.51345 8.95625 11.9997 7.5 15.9997 7.5C19.9997 7.5 23.4859 8.95625 26.3747 11.8275C27.6055 13.0531 28.6409 14.4603 29.4447 16C28.641 17.5398 27.6056 18.947 26.3747 20.1725H26.3697ZM15.9997 10.5C14.9119 10.5 13.8485 10.8226 12.9441 11.4269C12.0396 12.0313 11.3346 12.8902 10.9184 13.8952C10.5021 14.9002 10.3932 16.0061 10.6054 17.073C10.8176 18.1399 11.3414 19.1199 12.1106 19.8891C12.8798 20.6583 13.8598 21.1821 14.9267 21.3943C15.9936 21.6065 17.0995 21.4976 18.1045 21.0813C19.1094 20.6651 19.9684 19.9601 20.5728 19.0556C21.1771 18.1512 21.4997 17.0878 21.4997 16C21.498 14.5418 20.918 13.1438 19.887 12.1127C18.8559 11.0816 17.4579 10.5017 15.9997 10.5ZM15.9997 20.5C15.1097 20.5 14.2397 20.2361 13.4996 19.7416C12.7596 19.2471 12.1828 18.5443 11.8422 17.7221C11.5016 16.8998 11.4125 15.995 11.5862 15.1221C11.7598 14.2492 12.1884 13.4474 12.8177 12.818C13.4471 12.1887 14.2489 11.7601 15.1218 11.5865C15.9947 11.4128 16.8995 11.5019 17.7218 11.8425C18.544 12.1831 19.2468 12.7599 19.7413 13.4999C20.2358 14.24 20.4997 15.11 20.4997 16C20.4997 17.1935 20.0256 18.3381 19.1817 19.182C18.3378 20.0259 17.1932 20.5 15.9997 20.5Z" fill="#6B6B6B"/>
</svg>
