<svg width="34" height="33" viewBox="0 0 34 33" fill="none" xmlns="http://www.w3.org/2000/svg">
<path d="M33.5938 16.4063C33.5938 13.1614 32.6086 9.98943 30.763 7.29143C28.9173 4.59344 26.294 2.49061 23.2248 1.24886C20.1555 0.00710831 16.7782 -0.31779 13.52 0.315249C10.2617 0.948288 7.26878 2.51083 4.9197 4.80529C2.57061 7.09974 0.970866 10.0231 0.322755 13.2056C-0.325356 16.3881 0.00727756 19.6868 1.27859 22.6847C2.54991 25.6825 4.70281 28.2448 7.46504 30.0476C10.2273 31.8503 13.4748 32.8125 16.7969 32.8125C21.249 32.8038 25.5162 31.0725 28.6643 27.9977C31.8124 24.9228 33.5849 20.7548 33.5938 16.4063ZM17.4688 31.4836V19.6875H22.1719C22.3501 19.6875 22.521 19.6184 22.647 19.4953C22.773 19.3722 22.8438 19.2053 22.8438 19.0313C22.8438 18.8572 22.773 18.6903 22.647 18.5672C22.521 18.4441 22.3501 18.375 22.1719 18.375H17.4688V13.7813C17.4732 12.9123 17.8285 12.0802 18.4576 11.4658C19.0866 10.8514 19.9385 10.5043 20.8281 10.5H23.5156C23.6938 10.5 23.8647 10.4309 23.9907 10.3078C24.1167 10.1847 24.1875 10.0178 24.1875 9.84376C24.1875 9.66971 24.1167 9.50279 23.9907 9.37972C23.8647 9.25665 23.6938 9.18751 23.5156 9.18751H20.8281C19.5821 9.19183 18.3885 9.6772 17.5074 10.5378C16.6264 11.3983 16.1294 12.5642 16.125 13.7813V18.375H11.4219C11.2437 18.375 11.0728 18.4441 10.9468 18.5672C10.8208 18.6903 10.75 18.8572 10.75 19.0313C10.75 19.2053 10.8208 19.3722 10.9468 19.4953C11.0728 19.6184 11.2437 19.6875 11.4219 19.6875H16.125V31.4836C12.0886 31.312 8.2815 29.6032 5.51932 26.7233C2.75714 23.8433 1.25956 20.0213 1.34741 16.0759C1.43526 12.1306 3.10156 8.37575 5.98933 5.61582C8.87709 2.85589 12.7567 1.31037 16.7969 1.31037C20.8371 1.31037 24.7167 2.85589 27.6044 5.61582C30.4922 8.37575 32.1585 12.1306 32.2464 16.0759C32.3342 20.0213 30.8366 23.8433 28.0744 26.7233C25.3123 29.6032 21.5052 31.312 17.4688 31.4836Z" fill="black"/>
</svg>
