<svg width="33" height="33" viewBox="0 0 33 33" fill="none" xmlns="http://www.w3.org/2000/svg">
<path d="M16.4609 8.53125C14.9328 8.53125 13.4389 8.97387 12.1683 9.80313C10.8977 10.6324 9.90733 11.811 9.32252 13.1901C8.73772 14.5691 8.58471 16.0865 8.88284 17.5504C9.18097 19.0144 9.91685 20.3591 10.9974 21.4146C12.078 22.47 13.4548 23.1888 14.9536 23.48C16.4524 23.7712 18.0059 23.6217 19.4178 23.0505C20.8296 22.4793 22.0363 21.512 22.8853 20.2709C23.7343 19.0299 24.1875 17.5708 24.1875 16.0781C24.1875 14.0766 23.3735 12.157 21.9244 10.7417C20.4754 9.32637 18.5101 8.53125 16.4609 8.53125ZM16.4609 21.6562C15.3314 21.6562 14.2273 21.3291 13.2881 20.7162C12.349 20.1032 11.617 19.232 11.1847 18.2128C10.7525 17.1935 10.6394 16.0719 10.8597 14.9899C11.0801 13.9078 11.624 12.9139 12.4227 12.1338C13.2214 11.3537 14.239 10.8224 15.3468 10.6072C16.4546 10.3919 17.6029 10.5024 18.6464 10.9246C19.69 11.3468 20.5819 12.0618 21.2094 12.9791C21.8369 13.8964 22.1719 14.9749 22.1719 16.0781C22.1674 17.5562 21.5643 18.9725 20.4943 20.0177C19.4242 21.0628 17.9742 21.6519 16.4609 21.6562ZM23.8516 0H9.07031C6.66472 0 4.35765 0.933396 2.65663 2.59485C0.95562 4.25631 0 6.50972 0 8.85938V23.2969C0 25.6465 0.95562 27.8999 2.65663 29.5614C4.35765 31.2229 6.66472 32.1562 9.07031 32.1562H23.8516C26.2572 32.1562 28.5642 31.2229 30.2652 29.5614C31.9663 27.8999 32.9219 25.6465 32.9219 23.2969V8.85938C32.9219 6.50972 31.9663 4.25631 30.2652 2.59485C28.5642 0.933396 26.2572 0 23.8516 0ZM30.9062 23.2969C30.9062 25.1244 30.163 26.877 28.84 28.1693C27.517 29.4615 25.7226 30.1875 23.8516 30.1875H9.07031C7.19929 30.1875 5.40491 29.4615 4.08189 28.1693C2.75888 26.877 2.01562 25.1244 2.01562 23.2969V8.85938C2.01562 7.03187 2.75888 5.27921 4.08189 3.98697C5.40491 2.69472 7.19929 1.96875 9.07031 1.96875H23.8516C25.7226 1.96875 27.517 2.69472 28.84 3.98697C30.163 5.27921 30.9062 7.03187 30.9062 8.85938V23.2969ZM26.875 7.54688C26.875 7.87136 26.7765 8.18856 26.5919 8.45836C26.4074 8.72816 26.145 8.93844 25.8381 9.06261C25.5312 9.18679 25.1935 9.21928 24.8676 9.15598C24.5418 9.09267 24.2425 8.93642 24.0076 8.70697C23.7727 8.47753 23.6127 8.18519 23.5479 7.86695C23.4831 7.5487 23.5164 7.21882 23.6435 6.91903C23.7706 6.61925 23.9859 6.36302 24.2621 6.18274C24.5383 6.00247 24.8631 5.90625 25.1953 5.90625C25.6408 5.90625 26.068 6.0791 26.383 6.38678C26.698 6.69445 26.875 7.11175 26.875 7.54688Z" fill="black"/>
</svg>
