<svg width="192" height="192" viewBox="0 0 192 192" fill="none" xmlns="http://www.w3.org/2000/svg">
<path d="M58.0729 125.728L46.1523 133.069L39.828 122.801L51.7487 115.459L52.7765 117.128L41.8946 123.83L42.0857 123.148L46.8577 130.897L46.1528 130.744L57.0346 124.042L58.0729 125.728Z" fill="black"/>
<path d="M50.6923 112.108L37.4709 116.712L36.8198 114.842L50.0412 110.238L50.6923 112.108Z" fill="black"/>
<path d="M46.6187 97.7949L35.3786 99.1375L36.1069 105.234L39.038 104.985C40.0225 104.907 40.9703 104.861 41.8817 104.847C42.7914 104.818 43.6199 104.84 44.367 104.912C45.1009 104.986 45.7169 105.14 46.2151 105.376C46.7117 105.599 47.039 105.922 47.1971 106.347L47.0959 108.534C47.0739 108.013 46.8512 107.61 46.4277 107.325C45.9894 107.028 45.4084 106.829 44.6846 106.727C43.9459 106.614 43.1011 106.567 42.15 106.587C41.1857 106.608 40.1584 106.664 39.068 106.754L34.5832 107.148L33.4161 97.3779L46.3839 95.8289L46.6187 97.7949ZM51.9213 108.461L47.1528 109.011L45.3452 93.8783L50.1113 93.309L50.3319 95.1558L47.2935 95.5188L48.6599 106.957L51.7007 106.614L51.9213 108.461Z" fill="black"/>
<path d="M47.6711 91.4878L33.735 90.1518L33.924 88.1808L47.8601 89.5168L47.6711 91.4878Z" fill="black"/>
<path d="M48.1197 85.8447L34.7348 81.7403L37.8307 71.6443L39.456 72.1427L36.9406 80.3457L40.7649 81.5183L42.0431 77.3499C42.5317 75.7565 43.2345 74.6471 44.1514 74.0218C45.0684 73.3965 46.1579 73.2773 47.4199 73.6643C48.7201 74.063 49.582 74.8224 50.0056 75.9424C50.4331 77.0498 50.3908 78.4384 49.8787 80.1083L48.1197 85.8447ZM47.1896 83.4884L48.3447 79.7216C48.6848 78.6125 48.7305 77.7131 48.4818 77.0232C48.237 76.3206 47.7003 75.8422 46.8718 75.5881C45.2656 75.0956 44.1185 75.9711 43.4305 78.2147L42.2754 81.9816L47.1896 83.4884Z" fill="black"/>
<path d="M52.2887 73.4138L40.5249 65.8234L43.4851 61.2355C44.1502 60.2048 44.8801 59.4301 45.6749 58.9115C46.4697 58.3929 47.3017 58.1364 48.1709 58.1418C49.0401 58.1473 49.9004 58.4247 50.7519 58.9741C51.6034 59.5235 52.2107 60.1931 52.5739 60.9828C52.9259 61.7653 53.035 62.6291 52.9012 63.5742C52.7562 64.5121 52.3512 65.4964 51.6862 66.5271L49.3223 70.1907L49.0204 68.9248L53.373 71.7332L52.2887 73.4138ZM49.1884 69.0332L47.8602 69.2473L50.1916 65.6341C50.8855 64.5586 51.18 63.5981 51.0748 62.7528C50.9769 61.8962 50.5078 61.1968 49.6676 60.6547C48.8273 60.1125 47.9968 59.9733 47.176 60.2371C46.3624 60.4897 45.6086 61.1538 44.9147 62.2293L42.5833 65.8425L42.231 64.5441L49.1884 69.0332Z" fill="black"/>
<path d="M58.3154 63.7178L53.9284 48.9886L55.4239 47.6909L69.403 54.0966L67.8169 55.473L55.1005 49.4544L55.7047 48.9301L59.8713 62.3677L58.3154 63.7178ZM58.0608 59.3048L57.42 57.7424L63.3717 52.5779L64.8584 53.4062L58.0608 59.3048Z" fill="black"/>
<path d="M73.3916 52.3936L67.8898 40.8585L68.565 41.1126L63.7993 43.3856L63.0502 41.8151L73.4662 36.8472L74.2152 38.4177L69.4495 40.6907L69.6589 40.0147L75.1606 51.5499L73.3916 52.3936Z" fill="black"/>
<path d="M80.9017 48.9167L78.4989 35.1244L80.4496 34.7846L82.3031 45.4244L88.6067 33.3636L90.4194 33.0478L92.8222 46.84L90.8912 47.1764L89.0411 36.5564L82.7144 48.6009L80.9017 48.9167Z" fill="black"/>
<path d="M110.165 48.3823L112.888 37.3946L106.928 35.9178L106.124 38.7475C105.848 39.6956 105.556 40.5984 105.247 41.456C104.951 42.3168 104.638 43.0839 104.306 43.7572C103.977 44.4176 103.615 44.939 103.218 45.3214C102.834 45.707 102.415 45.8987 101.963 45.8964L99.9525 45.0274C100.448 45.1913 100.903 45.1257 101.32 44.8306C101.753 44.5257 102.145 44.0527 102.496 43.4117C102.863 42.7609 103.206 41.9873 103.524 41.0909C103.846 40.1815 104.157 39.2011 104.459 38.1494L105.677 33.8152L115.228 36.1819L112.087 48.8585L110.165 48.3823ZM98.3127 49.5663L99.4866 44.912L114.279 48.5775L113.125 53.2366L111.319 52.7892L112.055 49.8191L100.873 47.0483L100.118 50.0136L98.3127 49.5663Z" fill="black"/>
<path d="M120.511 54.3732C119.606 53.8082 118.859 53.1294 118.269 52.3368C117.691 51.5512 117.288 50.7105 117.062 49.8145C116.842 48.9073 116.804 47.9872 116.946 47.0543C117.089 46.1215 117.432 45.2196 117.975 44.3488C118.519 43.4779 119.179 42.7738 119.955 42.2364C120.73 41.699 121.57 41.3355 122.475 41.1457C123.386 40.9446 124.322 40.9315 125.282 41.1063C126.241 41.2812 127.179 41.6546 128.095 42.2266C129 42.7916 129.736 43.4633 130.303 44.2418C130.889 45.0161 131.291 45.8568 131.51 46.7641C131.748 47.6671 131.79 48.5815 131.637 49.5073C131.494 50.4402 131.148 51.3477 130.597 52.2298C130.046 53.112 129.383 53.8218 128.607 54.3591C127.843 54.9036 126.999 55.2728 126.076 55.4669C125.172 55.6566 124.24 55.6641 123.28 55.4892C122.339 55.3101 121.416 54.9381 120.511 54.3732ZM121.454 52.8633C122.11 53.2729 122.785 53.5376 123.481 53.6575C124.187 53.7844 124.871 53.7714 125.533 53.6185C126.213 53.4613 126.839 53.1762 127.411 52.7633C127.994 52.3574 128.491 51.8265 128.9 51.1706C129.31 50.5146 129.569 49.8354 129.678 49.1329C129.797 48.4375 129.775 47.7556 129.611 47.0871C129.465 46.4145 129.18 45.7885 128.756 45.2092C128.343 44.637 127.808 44.1461 127.153 43.7365C126.485 43.3198 125.798 43.048 125.092 42.9211C124.396 42.8013 123.709 42.82 123.029 42.9771C122.356 43.123 121.728 43.3989 121.144 43.8047C120.572 44.2177 120.081 44.7521 119.672 45.4081C119.262 46.064 118.997 46.7397 118.878 47.4351C118.769 48.1376 118.793 48.8287 118.951 49.5084C119.115 50.1769 119.403 50.7972 119.816 51.3694C120.241 51.9487 120.786 52.4467 121.454 52.8633Z" fill="black"/>
<path d="M128.625 60.1664L138.941 50.7019L145.147 57.4663L143.851 58.6279L138.659 52.9688L139.352 52.9844L129.963 61.6254L128.625 60.1664Z" fill="black"/>
<path d="M135.06 67.1445C134.967 66.9675 134.886 66.7843 134.816 66.5948C134.747 66.4054 134.68 66.1921 134.615 65.9548L136.256 65.2502C136.308 65.4638 136.384 65.6651 136.483 65.8539C136.756 66.3731 137.18 66.6775 137.754 66.7672C138.329 66.8568 139.072 66.752 139.984 66.453C140.903 66.1658 142.012 65.7106 143.311 65.0876L148.635 62.536L153.225 71.2628L140.834 77.7793L139.922 76.0446L151.233 70.0959L150.996 70.7628L147.691 64.4788L148.374 64.6169L144.193 66.6351C142.947 67.2451 141.829 67.7273 140.841 68.0815C139.852 68.4358 138.983 68.6445 138.232 68.7076C137.482 68.7707 136.845 68.6764 136.321 68.4248C135.803 68.1849 135.383 67.7581 135.06 67.1445Z" fill="black"/>
<path d="M143.684 89.2838L148.157 88.3982L147.787 89.0016L146.937 84.7049C146.717 83.5932 146.716 82.5943 146.935 81.7083C147.156 80.8353 147.577 80.1131 148.198 79.5417C148.835 78.9807 149.656 78.6006 150.664 78.4012C151.71 78.194 152.645 78.2469 153.468 78.5596C154.304 78.8698 154.994 79.4059 155.539 80.1679C156.098 80.9273 156.487 81.8629 156.707 82.9746L157.798 88.4877L144.065 91.2065L143.684 89.2838ZM141.874 80.1412L147.412 82.5721L147.808 84.5733L142.286 82.2209L141.874 80.1412ZM148.785 88.2739L156.28 86.7902L155.812 87.413L155.015 83.391C154.782 82.2139 154.329 81.3658 153.655 80.8467C152.995 80.3251 152.135 80.1691 151.075 80.3788C150.068 80.5782 149.348 81.0266 148.916 81.7239C148.485 82.4343 148.385 83.3716 148.616 84.5356L149.435 88.6753L148.785 88.2739Z" fill="black"/>
<path d="M144.517 103.275L155.789 104.314L156.353 98.1997L153.435 97.8302C152.456 97.6998 151.519 97.5465 150.625 97.3704C149.729 97.2075 148.924 97.0127 148.208 96.7861C147.506 96.5606 146.936 96.2805 146.498 95.9455C146.059 95.6239 145.807 95.2391 145.741 94.7911L146.298 92.6733C146.21 93.1874 146.344 93.6282 146.698 93.9956C147.065 94.3776 147.591 94.6939 148.278 94.9446C148.976 95.2099 149.793 95.4324 150.727 95.6123C151.674 95.7934 152.69 95.954 153.775 96.0942L158.243 96.6467L157.34 106.445L144.335 105.246L144.517 103.275ZM141.564 91.7348L146.342 92.1953L144.943 107.371L140.163 106.93L140.334 105.078L143.381 105.359L144.438 93.8877L141.393 93.5869L141.564 91.7348Z" fill="black"/>
<path d="M141.122 113.702L153.328 120.559L147.421 131.074L135.215 124.217L136.175 122.508L147.318 128.767L146.629 128.931L151.086 120.997L151.295 121.688L140.152 115.429L141.122 113.702Z" fill="black"/>
<path d="M132.657 126.958L143.039 136.351L141.71 137.819L131.328 128.427L132.657 126.958Z" fill="black"/>
<path d="M121.93 138.468L128.45 147.721L133.469 144.185L131.858 141.724C131.322 140.894 130.831 140.082 130.386 139.287C129.929 138.5 129.555 137.76 129.263 137.069C128.979 136.388 128.823 135.772 128.794 135.222C128.754 134.679 128.883 134.238 129.181 133.897L131.154 132.947C130.706 133.214 130.457 133.601 130.407 134.109C130.354 134.636 130.455 135.242 130.71 135.927C130.961 136.631 131.321 137.397 131.79 138.224C132.266 139.063 132.803 139.941 133.4 140.857L135.878 144.617L127.834 150.284L120.312 139.608L121.93 138.468ZM128.798 128.735L131.547 132.671L119.088 141.448L116.324 137.525L117.844 136.453L119.607 138.955L129.024 132.32L127.278 129.807L128.798 128.735Z" fill="black"/>
<path d="M116.196 140.389L121.594 153.306L119.767 154.07L114.369 141.152L116.196 140.389Z" fill="black"/>
<path d="M110.705 142.774L113.361 156.52L102.993 158.523L102.67 156.854L111.095 155.226L110.336 151.299L106.055 152.126C104.419 152.442 103.109 152.342 102.127 151.826C101.144 151.309 100.528 150.403 100.277 149.107C100.019 147.772 100.285 146.654 101.076 145.755C101.853 144.858 103.099 144.243 104.814 143.912L110.705 142.774ZM109.061 144.701L105.192 145.448C104.054 145.668 103.238 146.05 102.745 146.593C102.24 147.139 102.069 147.837 102.233 148.688C102.552 150.338 103.864 150.94 106.168 150.495L110.036 149.747L109.061 144.701Z" fill="black"/>
<path d="M97.8092 144.93L96.7032 158.886L91.2603 158.455C90.0375 158.358 89.0094 158.082 88.1759 157.629C87.3425 157.175 86.7222 156.564 86.3149 155.796C85.9076 155.028 85.744 154.139 85.8241 153.129C85.9041 152.119 86.2057 151.266 86.7289 150.572C87.2509 149.891 87.9598 149.386 88.8553 149.055C89.7498 148.738 90.8085 148.628 92.0313 148.725L96.3777 149.07L95.4063 149.936L95.8155 144.772L97.8092 144.93ZM95.4221 149.736L96.2402 150.804L91.9537 150.465C90.6777 150.363 89.6924 150.56 88.998 151.053C88.2902 151.545 87.8968 152.29 87.8178 153.287C87.7388 154.284 88.01 155.081 88.6314 155.678C89.2395 156.275 90.1816 156.624 91.4576 156.725L95.7441 157.065L94.768 157.99L95.4221 149.736Z" fill="black"/>
<path d="M86.6497 144.325L75.8197 155.23L73.9644 154.538L72.894 139.199L74.8618 139.932L75.6674 153.978L74.9177 153.698L84.7194 143.606L86.6497 144.325ZM82.8974 146.662L81.8327 147.973L74.4488 145.221L74.4641 143.519L82.8974 146.662Z" fill="black"/>
<path d="M69.3535 136.521L61.9418 146.933L61.836 146.219L66.1374 149.281L65.1283 150.699L55.7272 144.006L56.7363 142.589L61.0377 145.651L60.3451 145.796L67.7567 135.385L69.3535 136.521Z" fill="black"/>
</svg>
