<svg width="38" height="27" viewBox="0 0 38 27" fill="none" xmlns="http://www.w3.org/2000/svg">
<path d="M0 0.125V2.5H22.5625V20.3125H15.2522C14.7226 18.2712 12.8868 16.75 10.6875 16.75C8.48825 16.75 6.65238 18.2712 6.12275 20.3125H4.75V14.375H2.375V22.6875H6.12275C6.65238 24.7288 8.48825 26.25 10.6875 26.25C12.8868 26.25 14.7226 24.7288 15.2522 22.6875H25.1227C25.6524 24.7288 27.4883 26.25 29.6875 26.25C31.8867 26.25 33.7226 24.7288 34.2523 22.6875H38V13.0022L37.9252 12.8158L35.5502 5.69081L35.2925 4.875H24.9375V0.125H0ZM1.1875 4.875V7.25H11.875V4.875H1.1875ZM24.9375 7.25H33.5837L35.625 13.3359V20.3125H34.2523C33.7226 18.2712 31.8867 16.75 29.6875 16.75C27.4883 16.75 25.6524 18.2712 25.1227 20.3125H24.9375V7.25ZM2.375 9.625V12H9.5V9.625H2.375ZM10.6875 19.125C12.0139 19.125 13.0625 20.1736 13.0625 21.5C13.0625 22.8264 12.0139 23.875 10.6875 23.875C9.36106 23.875 8.3125 22.8264 8.3125 21.5C8.3125 20.1736 9.36106 19.125 10.6875 19.125ZM29.6875 19.125C31.0139 19.125 32.0625 20.1736 32.0625 21.5C32.0625 22.8264 31.0139 23.875 29.6875 23.875C28.3611 23.875 27.3125 22.8264 27.3125 21.5C27.3125 20.1736 28.3611 19.125 29.6875 19.125Z" fill="black"/>
</svg>
