<svg width="35" height="24" viewBox="0 0 35 24" fill="none" xmlns="http://www.w3.org/2000/svg">
<path d="M0 0V2.18182H20.7812V18.5455H14.0481C13.5603 16.6702 11.8694 15.2727 9.84375 15.2727C7.81812 15.2727 6.12719 16.6702 5.63938 18.5455H4.375V13.0909H2.1875V20.7273H5.63938C6.12719 22.6025 7.81812 24 9.84375 24C11.8694 24 13.5603 22.6025 14.0481 20.7273H23.1394C23.6272 22.6025 25.3181 24 27.3438 24C29.3694 24 31.0603 22.6025 31.5481 20.7273H35V11.8298L34.9311 11.6585L32.7436 5.11309L32.5062 4.36364H22.9688V0H0ZM1.09375 4.36364V6.54545H10.9375V4.36364H1.09375ZM22.9688 6.54545H30.9323L32.8125 12.1364V18.5455H31.5481C31.0603 16.6702 29.3694 15.2727 27.3438 15.2727C25.3181 15.2727 23.6272 16.6702 23.1394 18.5455H22.9688V6.54545ZM2.1875 8.72727V10.9091H8.75V8.72727H2.1875ZM9.84375 17.4545C11.0655 17.4545 12.0312 18.4178 12.0312 19.6364C12.0312 20.8549 11.0655 21.8182 9.84375 21.8182C8.62203 21.8182 7.65625 20.8549 7.65625 19.6364C7.65625 18.4178 8.62203 17.4545 9.84375 17.4545ZM27.3438 17.4545C28.5655 17.4545 29.5312 18.4178 29.5312 19.6364C29.5312 20.8549 28.5655 21.8182 27.3438 21.8182C26.122 21.8182 25.1562 20.8549 25.1562 19.6364C25.1562 18.4178 26.122 17.4545 27.3438 17.4545Z" fill="white"/>
</svg>
