<svg width="37" height="28" viewBox="0 0 37 28" fill="none" xmlns="http://www.w3.org/2000/svg">
<path d="M0.583336 6.34375C0.583336 4.89335 1.17322 3.50235 2.22323 2.47676C3.27324 1.45117 4.69736 0.875 6.18229 0.875H30.8177C32.3026 0.875 33.7268 1.45117 34.7768 2.47676C35.8268 3.50235 36.4167 4.89335 36.4167 6.34375V21.6562C36.4167 23.1067 35.8268 24.4977 34.7768 25.5232C33.7268 26.5488 32.3026 27.125 30.8177 27.125H6.18229C4.69736 27.125 3.27324 26.5488 2.22323 25.5232C1.17322 24.4977 0.583336 23.1067 0.583336 21.6562V6.34375ZM6.18229 3.0625C5.29133 3.0625 4.43686 3.4082 3.80686 4.02356C3.17685 4.63891 2.82292 5.47351 2.82292 6.34375V9.1875H34.1771V6.34375C34.1771 5.47351 33.8232 4.63891 33.1931 4.02356C32.5631 3.4082 31.7087 3.0625 30.8177 3.0625H6.18229ZM2.82292 21.6562C2.82292 22.5265 3.17685 23.3611 3.80686 23.9764C4.43686 24.5918 5.29133 24.9375 6.18229 24.9375H30.8177C31.7087 24.9375 32.5631 24.5918 33.1931 23.9764C33.8232 23.3611 34.1771 22.5265 34.1771 21.6562V11.375H2.82292V21.6562ZM24.9948 18.8125C24.6978 18.8125 24.413 18.9277 24.203 19.1329C23.993 19.338 23.875 19.6162 23.875 19.9062C23.875 20.1963 23.993 20.4745 24.203 20.6796C24.413 20.8848 24.6978 21 24.9948 21H29.9219C30.2189 21 30.5037 20.8848 30.7137 20.6796C30.9237 20.4745 31.0417 20.1963 31.0417 19.9062C31.0417 19.6162 30.9237 19.338 30.7137 19.1329C30.5037 18.9277 30.2189 18.8125 29.9219 18.8125H24.9948Z" fill="white"/>
</svg>
