<svg width="36" height="28" viewBox="0 0 36 28" fill="none" xmlns="http://www.w3.org/2000/svg">
<path d="M0.5 6.34375C0.5 4.89335 1.07617 3.50235 2.10176 2.47676C3.12735 1.45117 4.51835 0.875 5.96875 0.875H30.0313C31.4817 0.875 32.8727 1.45117 33.8982 2.47676C34.9238 3.50235 35.5 4.89335 35.5 6.34375V21.6562C35.5 23.1067 34.9238 24.4977 33.8982 25.5232C32.8727 26.5488 31.4817 27.125 30.0313 27.125H5.96875C4.51835 27.125 3.12735 26.5488 2.10176 25.5232C1.07617 24.4977 0.5 23.1067 0.5 21.6562V6.34375ZM5.96875 3.0625C5.09851 3.0625 4.26391 3.4082 3.64856 4.02356C3.0332 4.63891 2.6875 5.47351 2.6875 6.34375V9.1875H33.3125V6.34375C33.3125 5.47351 32.9668 4.63891 32.3514 4.02356C31.7361 3.4082 30.9015 3.0625 30.0313 3.0625H5.96875ZM2.6875 21.6562C2.6875 22.5265 3.0332 23.3611 3.64856 23.9764C4.26391 24.5918 5.09851 24.9375 5.96875 24.9375H30.0313C30.9015 24.9375 31.7361 24.5918 32.3514 23.9764C32.9668 23.3611 33.3125 22.5265 33.3125 21.6562V11.375H2.6875V21.6562ZM24.3438 18.8125C24.0537 18.8125 23.7755 18.9277 23.5704 19.1329C23.3652 19.338 23.25 19.6162 23.25 19.9062C23.25 20.1963 23.3652 20.4745 23.5704 20.6796C23.7755 20.8848 24.0537 21 24.3438 21H29.1563C29.4463 21 29.7245 20.8848 29.9297 20.6796C30.1348 20.4745 30.25 20.1963 30.25 19.9062C30.25 19.6162 30.1348 19.338 29.9297 19.1329C29.7245 18.9277 29.4463 18.8125 29.1563 18.8125H24.3438Z" fill="black"/>
</svg>
